<?xml version="1.0" encoding="UTF-8"?>
<!DOCTYPE svg PUBLIC "-//W3C//DTD SVG 1.1//EN" "http://www.w3.org/Graphics/SVG/1.1/DTD/svg11.dtd">
<!-- Creator: CorelDRAW -->
<svg xmlns="http://www.w3.org/2000/svg" xml:space="preserve" width="6.8512in" height="1.14278in" version="1.1" style="shape-rendering:geometricPrecision; text-rendering:geometricPrecision; image-rendering:optimizeQuality; fill-rule:evenodd; clip-rule:evenodd"
viewBox="0 0 6819.14 1137.43"
 xmlns:xlink="http://www.w3.org/1999/xlink"
 xmlns:xodm="http://www.corel.com/coreldraw/odm/2003">
 <defs>
  <style type="text/css">
   <![CDATA[
    .fil0 {fill:#fff;fill-rule:nonzero}
   ]]>
  </style>
 </defs>
 <g id="Layer_x0020_1">
  <metadata id="CorelCorpID_0Corel-Layer"/>
  <path class="fil0" d="M863.26 1117.18l0 -818.63 243.05 0 0 818.63 -243.05 0zm570.8 -221.14c101.65,0 203.32,0 304.97,0 34.97,100.45 117.53,173.3 198.53,221.14l-746.55 0 0 -854.16 243.05 0 0 633.02zm1110.94 113.76c-87.26,85.02 -196.16,127.63 -327.13,127.63 -130.95,0 -239.86,-42.59 -327.12,-127.63 -87.26,-85.04 -130.96,-190.89 -130.96,-317.41 0,-126.52 43.7,-232.09 130.96,-316.86 87.26,-84.75 196.17,-127.35 327.12,-127.35 130.97,0 239.88,42.59 327.13,127.35 87.26,84.77 130.96,190.34 130.96,316.86 0,126.52 -43.71,232.38 -130.96,317.41zm-475.84 -167.3c39.11,39.94 88.77,60.21 148.71,60.21 59.93,0 109.6,-20.27 149,-60.21 39.67,-40.22 59.38,-90.17 59.38,-150.11 0,-59.93 -19.71,-109.59 -59.38,-149.55 -39.39,-39.68 -89.07,-59.65 -149,-59.65 -59.93,0 -109.59,19.98 -148.71,59.65 -39.39,39.95 -59.1,89.62 -59.1,149.55 0,59.93 19.71,109.88 59.1,150.11zm1326.55 53.54l128.82 0 0 221.14 -342.47 0 0 -79.63c-57.43,66.59 -84.5,99.89 -184.1,99.89 -84.62,0 -155.47,-26.3 -212.53,-79.08 -57.21,-52.9 -85.74,-118.75 -85.74,-197.55 0,-78.8 28.26,-144.66 84.9,-197.27 56.51,-52.49 127.64,-78.8 213.37,-78.8l154.69 0 0 -93.51c-161.64,0 -297.42,0 -459.07,0 -68.58,-128.22 -110.93,-167.47 -182.49,-222.8l884.62 0 0 627.61zm-332.82 54.38c42.44,0 33.49,-9.22 59.55,-28.02 25.75,-18.57 30.21,-43 30.21,-73.52l0 -87.69 -89.77 0c-31.85,0 -58.78,8.72 -80.75,26.36 -21.82,17.54 -33.01,40.24 -33.01,67.97 0,26.36 11.05,48.94 33.01,67.43 21.83,18.37 48.83,27.47 80.75,27.47zm1476.6 -702.25c92.12,0 166.47,28.85 222.8,86.57 56.32,57.72 84.63,133.8 84.63,228.07l0 554.37 -243.06 0 0 -481.12c0,-45.5 -13.28,-82.5 -39.95,-110.7 -26.54,-28.06 -62.15,-42.17 -106.54,-42.17 -47.73,0 -86.19,14.31 -115.43,43 -29.23,28.69 -43.83,66.37 -43.83,112.93l0 478.06 -243.05 0 0 -481.12c0,-45.5 -13.28,-82.5 -40.24,-110.7 -26.81,-28.06 -62.42,-42.17 -106.82,-42.17 -47.72,0 -86.32,14.44 -115.42,43 -29.39,28.82 -43.84,66.37 -43.84,112.93l0 478.06 -243.04 0 0 -848.75 243.04 0 0 89.61c63.26,-73.23 143.73,-109.87 241.39,-109.87 122.91,0 211.98,48.83 267.46,146.5 66.04,-97.67 160.11,-146.5 281.91,-146.5z"/>
  <path class="fil0" d="M983.94 250.88c-35.57,0 -65.53,-11.94 -89.87,-35.81 -24.11,-23.64 -36.27,-53.83 -36.27,-90.34 0,-35.81 12.17,-65.53 36.27,-89.17 24.34,-23.87 54.3,-35.57 89.87,-35.57 36.51,0 67.16,11.7 91.51,35.57 24.57,23.64 36.74,53.36 36.74,89.17 0,36.51 -12.17,66.7 -36.74,90.34 -24.34,23.87 -55,35.81 -91.51,35.81z"/>
  <polygon class="fil0" points="4998.06,266.58 4828.52,30.56 5165.07,30.56 5305,266.58 "/>
  <path class="fil0" d="M5749.53 887.34l498.53 0 0 229.84 -855.62 0 0 -198.35 353.77 -376.49c71.69,-78.97 107.55,-143.25 107.55,-193.1 0,-25.98 -9.1,-48.01 -27.02,-66.12 -18.2,-17.84 -40.82,-26.76 -68.38,-26.76 -28.42,0 -51.84,8.41 -70.33,25.72 -18.2,17.05 -27.29,39.62 -27.29,67.16l-263.34 0c0,-95.24 34.48,-175.26 103.41,-240.06 68.93,-64.8 154.69,-97.33 257.26,-97.33 102.59,0 188.06,32.01 256.44,96.02 68.4,64.03 102.59,144.56 102.59,241.38 0,105.21 -48.54,206.75 -145.32,305.12l-222.25 232.98z"/>
  <path class="fil0" d="M6819.14 681.45l0 166.41 -103.02 0 0 269.31 -234.88 0 0 -269.31 -451.8 0 0 -166.41 427.25 -648.54 259.43 0 0 648.54 103.02 0zm-548.84 0l210.94 0 0 -349.2 -210.94 349.2z"/>
  <path class="fil0" d="M695.31 1040.03c-77.04,65.07 -173.69,97.4 -289.11,97.4 -115.42,0 -211.98,-33.18 -289.66,-99.52 -77.69,-66.34 -116.53,-149.42 -116.53,-249.46l264.97 0c0,36.09 14.02,66.74 41.89,91.56 27.87,24.79 62.15,37.42 102.66,37.42 39.12,0 71.65,-10.04 97.67,-30.26 25.85,-20.1 38.84,-45.11 38.84,-74.57 0,-60.77 -67.6,-108.39 -203.09,-141.72 -95.35,-23.45 -173.57,-62.25 -234.46,-117.03 -60.89,-54.81 -91.56,-130.3 -91.56,-227.16 0,-93.42 37.04,-171.05 110.7,-233.27 73.66,-62.22 165.37,-93.42 275.53,-93.42 112.09,0 205.45,31.71 279.67,95.54 74.21,63.81 111.26,143.3 111.26,238.84l-264.14 0c0,-32.64 -11.93,-59.98 -35.79,-81.73 -23.85,-21.76 -54.1,-32.65 -91,-32.65 -34.13,0 -62.92,9.38 -86.3,28.13 -23.23,18.65 -34.96,41.67 -34.96,69.01 0,59.71 62.84,104.91 187.85,136.93 48.95,12.54 91.5,27.5 127.91,43.26 36.54,15.81 72.22,36.54 106.55,62.36 34.46,25.92 60.84,58.9 79.35,98.99 18.37,39.78 27.48,85.73 27.48,137.48 0,97.4 -38.52,178.69 -115.71,243.88z"/>
 </g>
</svg>
