<svg xmlns="http://www.w3.org/2000/svg" style="width:50px;height:50px;" viewBox="0 0 151 217" fill="none">
<path d="M73.5221 127.5C74.2759 127.787 74.2759 127.787 75.0422 128.075C82.9566 131.537 89.3006 138.45 92.5041 146.325C95.9022 156.012 95.695 165.7 91.3169 175.137C89.263 178.937 86.6185 181.95 83.5282 185.012C83.1576 185.381 82.787 185.744 82.4101 186.125C75.6264 192.362 66.707 194.25 57.7248 193.937C47.7376 193.219 40.0117 188.631 33.4164 181.25C26.507 172.562 25.5648 163.25 26.3814 152.5C26.8776 149.769 27.6376 147.475 28.8939 145C29.1702 144.462 29.4403 143.919 29.723 143.362C34.4276 134.925 41.5317 128.987 50.8908 126.237C58.5539 124.444 66.0914 124.65 73.5033 127.487L73.5221 127.5ZM71.6378 138.75C66.7133 144.225 62.844 152 60.3943 158.875C59.2009 161.781 56.8957 162.669 54.1131 163.856C53.686 164.019 53.2651 164.181 52.8254 164.344C53.1206 163.737 53.4221 163.131 53.7299 162.506C55.1935 159.056 55.9849 155.506 54.5905 151.944C53.4598 150.012 52.8129 149.269 50.941 148.119C47.4801 147.337 44.4714 147.944 41.3935 149.606C36.4439 152.894 33.2907 157.981 32.0973 163.731C31.7393 167.15 32.3234 169.462 33.9817 172.481C35.8535 174.556 36.7957 174.937 39.5971 175.294C43.749 175.069 46.3809 172.256 49.0818 169.356C49.4336 168.812 49.779 168.275 50.1433 167.719C52.3104 165.5 54.9045 165.05 57.8693 164.356C57.5426 165.262 57.5426 165.262 57.2035 166.187C54.9108 172.625 53.0955 178.25 55.3568 185C56.4246 187.006 56.4246 187.006 58.3404 187.462C60.4195 187.5 61.5061 187.262 63.1644 186.012C67.2095 181.862 71.2044 175.137 72.1466 169.387C72.9317 167.475 72.9317 167.475 74.1063 166.925C75.0925 166.637 76.0849 166.362 77.0836 166.1C79.4893 165.3 81.3737 163.8 82.9817 161.85C83.4277 160.531 83.4277 160.531 83.6098 159.35C81.8699 160.056 80.9591 160.744 79.6464 162.125C77.6678 164 76.0975 164.662 73.5598 165.6C73.5787 165.137 73.6038 164.681 73.6289 164.206C73.742 160.387 73.742 160.387 72.7747 156.706C72.4104 156.331 72.0461 155.962 71.6755 155.575H69.163C67.7434 158.331 67.9758 160.237 68.3778 163.262C69.119 170.887 65.7711 177.387 61.9081 183.887C60.8089 185.15 60.0991 185.369 58.4597 185.587C57.461 173.025 64.9294 159.9 70.5197 149.025C70.7647 148.537 71.0096 148.044 71.2609 147.544C72.8689 144.5 74.4643 142.562 77.3097 140.606H78.566C78.2771 143.712 77.3788 145.1 75.4254 147.481V149.981C77.2909 149.781 78.2833 149.662 79.5835 148.269C81.0534 145.881 81.0848 143.362 81.0785 140.581C80.4504 138.081 80.13 137.662 77.9379 136.206C75.3311 136.206 73.6541 137.131 71.6566 138.706L71.6378 138.75Z" fill="#fff"/>
<path d="M145.756 0H150.153V216.875H145.756V0Z" fill="#fff"/>
<path d="M57.1909 20C59.0564 20.2063 60.922 20.4125 62.844 20.625V45.625H87.3409V51.875C79.4894 52.0813 71.575 52.2875 63.4722 52.5L62.844 123.75H56.5628V51.875C49.0881 52.0813 41.6134 52.2875 33.9503 52.5C33.3284 52.2937 32.7066 52.0875 32.0659 51.875V45.625H56.5628C56.5502 43.3688 56.5377 41.1125 56.5251 38.8125C56.5063 32.5 56.7135 26.3125 57.1909 20Z" fill="#fff"/>
<path d="M91.7378 139.375H130.682V143.75H114.35V189.375H101.788V143.75H93.6222C91.7378 140.625 91.7378 140.625 91.7378 139.375Z" fill="#fff"/>
<path d="M0.03125 131.25H13.2219V176.875H27.6688C28.925 179.375 28.925 179.375 28.925 181.25H0.03125V131.25Z" fill="#fff"/>
<path d="M85.4565 131.25H130.682V135.625C125.248 135.7 119.815 135.75 114.35 135.788C111.832 135.806 109.306 135.825 106.813 135.863C104.382 135.894 101.945 135.912 99.5265 135.919C98.5969 135.925 97.6673 135.938 96.7439 135.956C95.4374 135.981 94.1372 135.981 92.837 135.981C92.0958 135.988 91.3546 135.994 90.5883 136C88.0319 135.512 87.0834 134.494 85.4754 132.5V131.25H85.4565Z" fill="#fff"/>
<path d="M0.0314063 185C4.70466 184.919 9.39047 184.869 14.0386 184.831C15.6277 184.813 17.2169 184.794 18.8061 184.763C21.0924 184.725 23.3788 184.706 25.6526 184.694C26.3624 184.681 27.0722 184.663 27.8008 184.644C33.3157 184.644 33.3157 184.644 35.6524 186.506C37.0594 188.125 37.0594 188.125 37.0594 189.375H0V185H0.0314063Z" fill="#fff"/>
<path d="M44.6282 151.25C45.2564 152.5 45.2564 152.5 44.8606 153.838C44.6659 154.363 44.4712 154.888 44.2765 155.431C43.3406 158.406 43.2024 160.231 44.6282 163.119C46.186 164.35 46.186 164.35 47.7689 164.994C46.8267 168.338 44.5214 170.706 42.1157 173.119C40.3821 173.981 39.0065 173.863 37.0907 173.744C35.8345 172.494 35.8345 172.494 35.5581 170.113C35.7528 163.113 39.7226 156.113 44.6031 151.238L44.6282 151.25Z" fill="#fff"/>
<path d="M51.5377 150C52.7751 154.406 51.387 158.375 49.6533 162.5C48.6232 163.681 48.6232 163.681 47.769 164.375C46.5127 163.513 46.5127 163.513 45.2565 161.875C44.6535 158.169 45.0429 155.063 47.1408 151.875C48.6672 149.894 48.8179 150 51.5377 150Z" fill="#fff"/>
<path d="M69.7534 157.5H70.3815V162.5H69.7534V157.5Z" fill="#fff"/>
</svg>